HIERARCHY
ROOT hip
{
  OFFSET 0 0 0
  CHANNELS 6 Xposition Yposition Zposition Zrotation Yrotation Xrotation
  JOINT abdomen
  {
    OFFSET 0 20.6881 -0.73152
    CHANNELS 3 Zrotation Xrotation Yrotation
    JOINT chest
    {
      OFFSET 0 11.7043 -0.48768
      CHANNELS 3 Zrotation Xrotation Yrotation
      JOINT neck
      {
        OFFSET 0 22.1894 -2.19456
        CHANNELS 3 Zrotation Xrotation Yrotation
        JOINT head
        {
          OFFSET -0.24384 7.07133 1.2192
          CHANNELS 3 Zrotation Xrotation Yrotation
          JOINT leftEye
          {
            OFFSET 4.14528 8.04674 8.04672
            CHANNELS 3 Zrotation Xrotation Yrotation
            End Site
            {
              OFFSET 1 0 0
            }
          }
          JOINT rightEye
          {
            OFFSET -3.6576 8.04674 8.04672
            CHANNELS 3 Zrotation Xrotation Yrotation
            End Site
            {
              OFFSET 1 0 0
            }
          }
        }
      }
      JOINT rCollar
      {
        OFFSET -2.68224 19.2634 -4.8768
        CHANNELS 3 Zrotation Xrotation Yrotation
        JOINT rShldr
        {
          OFFSET -8.77824 -1.95073 1.46304
          CHANNELS 3 Zrotation Xrotation Yrotation
          JOINT rForeArm
          {
            OFFSET -28.1742 -1.7115 0.48768
            CHANNELS 3 Zrotation Xrotation Yrotation
            JOINT rHand
            {
              OFFSET -22.5879 0.773209 7.07136
              CHANNELS 3 Zrotation Xrotation Yrotation
              JOINT rThumb1
              {
                OFFSET -1.2192 -0.487915 3.41376
                CHANNELS 3 Zrotation Xrotation Yrotation
                JOINT rThumb2
                {
                  OFFSET -3.37035 -0.52449 3.41376
                  CHANNELS 3 Zrotation Xrotation Yrotation
                  End Site
                  {
                    OFFSET -1.78271 -1.18214 1.43049
                  }
                }
              }
              JOINT rIndex1
              {
                OFFSET -7.75947 0.938293 5.60832
                CHANNELS 3 Zrotation Xrotation Yrotation
                JOINT rIndex2
                {
                  OFFSET -2.54057 -0.884171 1.56538
                  CHANNELS 3 Zrotation Xrotation Yrotation
                  End Site
                  {
                    OFFSET -1.62519 -0.234802 1.16502
                  }
                }
              }
              JOINT rMid1
              {
                OFFSET -8.24714 1.18213 3.41376
                CHANNELS 3 Zrotation Xrotation Yrotation
                JOINT rMid2
                {
                  OFFSET -3.10165 -0.590103 1.0647
                  CHANNELS 3 Zrotation Xrotation Yrotation
                  End Site
                  {
                    OFFSET -2.48547 -0.328903 0.83742
                  }
                }
              }
              JOINT rRing1
              {
                OFFSET -8.82822 0.546677 1.51678
                CHANNELS 3 Zrotation Xrotation Yrotation
                JOINT rRing2
                {
                  OFFSET -2.60934 -0.819778 -0.0198488
                  CHANNELS 3 Zrotation Xrotation Yrotation
                  End Site
                  {
                    OFFSET -2.33842 -0.294052 0.168128
                  }
                }
              }
              JOINT rPinky1
              {
                OFFSET -8.27202 -0.0477905 -0.4584
                CHANNELS 3 Zrotation Xrotation Yrotation
                JOINT rPinky2
                {
                  OFFSET -1.82734 -0.647385 -0.700984
                  CHANNELS 3 Zrotation Xrotation Yrotation
                  End Site
                  {
                    OFFSET -1.69225 -0.51767 -0.607171
                  }
                }
              }
            }
          }
        }
      }
      JOINT lCollar
      {
        OFFSET 2.68224 19.2634 -4.8768
        CHANNELS 3 Zrotation Xrotation Yrotation
        JOINT lShldr
        {
          OFFSET 8.77824 -1.95073 1.46304
          CHANNELS 3 Zrotation Xrotation Yrotation
          JOINT lForeArm
          {
            OFFSET 28.1742 -1.7115 0.48768
            CHANNELS 3 Zrotation Xrotation Yrotation
            JOINT lHand
            {
              OFFSET 22.5879 0.773209 7.07136
              CHANNELS 3 Zrotation Xrotation Yrotation
              JOINT lThumb1
              {
                OFFSET 1.2192 -0.487915 3.41376
                CHANNELS 3 Zrotation Xrotation Yrotation
                JOINT lThumb2
                {
                  OFFSET 3.37035 -0.52449 3.41376
                  CHANNELS 3 Zrotation Xrotation Yrotation
                  End Site
                  {
                    OFFSET 1.78271 -1.18214 1.43049
                  }
                }
              }
              JOINT lIndex1
              {
                OFFSET 7.75947 0.938293 5.60832
                CHANNELS 3 Zrotation Xrotation Yrotation
                JOINT lIndex2
                {
                  OFFSET 2.54057 -0.884171 1.56538
                  CHANNELS 3 Zrotation Xrotation Yrotation
                  End Site
                  {
                    OFFSET 1.62519 -0.234802 1.16502
                  }
                }
              }
              JOINT lMid1
              {
                OFFSET 8.24714 1.18213 3.41376
                CHANNELS 3 Zrotation Xrotation Yrotation
                JOINT lMid2
                {
                  OFFSET 3.10165 -0.590103 1.0647
                  CHANNELS 3 Zrotation Xrotation Yrotation
                  End Site
                  {
                    OFFSET 2.48547 -0.328903 0.83742
                  }
                }
              }
              JOINT lRing1
              {
                OFFSET 8.82822 0.546677 1.51678
                CHANNELS 3 Zrotation Xrotation Yrotation
                JOINT lRing2
                {
                  OFFSET 2.60934 -0.819778 -0.0198488
                  CHANNELS 3 Zrotation Xrotation Yrotation
                  End Site
                  {
                    OFFSET 2.33842 -0.294052 0.168128
                  }
                }
              }
              JOINT lPinky1
              {
                OFFSET 8.27202 -0.0477905 -0.4584
                CHANNELS 3 Zrotation Xrotation Yrotation
                JOINT lPinky2
                {
                  OFFSET 1.82734 -0.647385 -0.700984
                  CHANNELS 3 Zrotation Xrotation Yrotation
                  End Site
                  {
                    OFFSET 1.69225 -0.51767 -0.607171
                  }
                }
              }
            }
          }
        }
      }
    }
  }
  JOINT rButtock
  {
    OFFSET -8.77824 4.35084 1.2192
    CHANNELS 3 Zrotation Xrotation Yrotation
    JOINT rThigh
    {
      OFFSET 0 -1.70687 -2.19456
      CHANNELS 3 Zrotation Xrotation Yrotation
      JOINT rShin
      {
        OFFSET 0 -36.8199 0.73152
        CHANNELS 3 Zrotation Xrotation Yrotation
        JOINT rFoot
        {
          OFFSET 0.73152 -45.1104 -5.12064
          CHANNELS 3 Zrotation Xrotation Yrotation
          End Site
          {
            OFFSET -1.1221 -3.69964 12.103
          }
        }
      }
    }
  }
  JOINT lButtock
  {
    OFFSET 8.77824 4.35084 1.2192
    CHANNELS 3 Zrotation Xrotation Yrotation
    JOINT lThigh
    {
      OFFSET 0 -1.70687 -2.19456
      CHANNELS 3 Zrotation Xrotation Yrotation
      JOINT lShin
      {
        OFFSET 0 -36.8199 0.73152
        CHANNELS 3 Zrotation Xrotation Yrotation
        JOINT lFoot
        {
          OFFSET -0.73152 -45.1104 -5.12064
          CHANNELS 3 Zrotation Xrotation Yrotation
          End Site
          {
            OFFSET 1.1221 -3.69964 12.103
          }
        }
      }
    }
  }
}
MOTION
Frames:	6
Frame Time:	0.03333
3.5884 4.2878 3.2717000000000005 15.115206 -39.566409 3.946403 3.814911 33.244003 180.0 143.519315 18.53812 86.041889 123.431039 39.219013 -61.038657 -43.625402 62.89249 86.207541 -146.921374 -13.271973 -42.787669 -13.321243 -3.765375 31.442365 59.024491 18.765207 -23.18109 -87.557536 -10.412445 -132.248567 -101.77346 24.221466 -76.986289 44.854336 -72.058756 41.262646 87.317977 -63.178102 15.589476 -168.094215 -25.636416 39.902852 -127.656167 23.102188 -167.097369 -27.731899 77.596483 -67.202749 -44.00779 -35.551108 -160.494695 158.569809 -1.378487 -19.455046 -83.949413 -10.005004 -125.584731 -104.919818 -43.146064 -170.884556 6.57847 2.501493 -42.488807 83.827185 -40.517122 100.423625 71.91964 -25.176487 -51.966193 -113.490162 23.213845 65.346619 20.945369 -6.8214 -66.593563 79.50459 -32.899961 61.932435 29.439134 5.771277 -81.206634 130.871651 -32.032682 -121.317889 -157.870056 3.482898 100.929544 -25.023339 -0.845547 -154.603482 58.868314 11.7902 128.795814 24.843452 4.801681 90.903764 71.304607 30.536367 113.995428 1.327682 -33.749486 -81.26741 -46.618089 -6.748944 60.682745 -81.925022 38.896925 -95.698576 32.979702 34.090979 56.671141 -71.373843 -35.025403 -79.051717 -72.281243 54.718151 -9.413253 61.027399 0.213907 42.569813 -36.936216 13.19729 -37.220422 56.868571 -47.972317 49.466855 166.244141 77.192746 -60.648806 -119.248949 55.96413 -64.470653
3.6306 3.9734 3.3482 17.96964 -38.574777 2.263523 -1.002889 19.411122 -0.0 -138.142693 -22.160651 -80.503602 127.11191 38.407123 -84.714445 -75.404246 33.192546 121.427061 -162.743061 -8.046738 -49.737502 -13.349138 -4.124537 34.207099 122.295233 32.805577 -53.274885 54.956123 16.017578 -3.339763 83.593964 35.407829 64.640429 -56.289624 71.359729 47.392707 115.028635 -72.021159 36.097754 -158.136168 -40.735585 59.460392 -87.76405 -2.598201 -130.639202 -87.545605 -2.266885 -140.698834 -114.984317 53.704686 -158.343496 153.590488 -11.226725 -67.9812 88.786153 39.145422 -93.033946 132.398013 -47.322624 157.38285 -87.476614 7.989284 -77.318252 109.521008 -6.686445 26.8394 108.773359 -29.058159 -53.396114 -58.379173 -44.022326 63.30153 5.950913 68.798976 -66.694677 81.727186 -32.60574 47.124305 -6.172566 38.397596 -81.415358 10.79861 7.438986 0.759399 8.304657 31.774306 135.824673 -163.739007 -15.977955 112.108673 15.55183 -0.494445 106.717695 109.435295 24.423776 98.114322 6.685379 11.348203 105.256985 109.480697 14.253607 -19.029492 140.798393 12.28966 67.352969 -108.617993 81.853308 -134.060202 -17.727789 -11.180459 20.183898 32.457821 -44.718167 42.111937 74.96025 53.905105 143.86906 36.002729 19.004861 88.355607 -53.506144 26.666237 -52.060634 81.223409 -27.446763 0.0 -95.03287 31.210457 76.057596 -99.487022 -22.771566 -81.067128
3.7110999999999996 4.9363 3.4669 31.009375 -41.964389 -9.755635 1.91082 27.264369 -68.119506 178.643481 -44.391522 -177.018108 -175.834296 61.186488 136.220354 -29.055887 -33.632951 -165.895596 -148.003606 -5.233413 -18.113562 14.330607 4.055138 31.455637 -90.043644 -46.363506 -171.873458 -146.352579 57.11768 81.360239 -55.555495 4.931173 145.353068 61.30959 -49.259106 33.621292 164.180143 -12.23432 92.270612 47.486889 -57.99423 55.348378 -61.201738 58.090973 13.508415 122.479663 64.104209 27.58259 -55.016529 55.703935 159.089841 27.046323 -13.267904 -146.966977 -73.038202 15.925857 -138.096304 112.53349 20.172843 -29.988261 52.780415 33.716668 -3.082963 10.940379 -51.663963 26.093619 146.618759 21.37697 -60.300778 -97.342834 13.958594 0.311401 179.78743 53.215059 -49.874128 179.398671 16.019876 -117.289435 8.041223 -4.47832 -8.046113 -39.09087 3.749364 11.589849 -63.934451 -32.622822 106.320764 0.359236 12.726828 -148.334773 36.058361 -39.374045 121.704155 -163.118108 24.571123 142.853914 99.649467 30.144542 156.978437 -81.345177 -38.373368 -88.941039 -60.724373 -48.640939 70.269698 55.71899 -25.355776 -54.275074 -83.041209 24.937559 -49.237506 124.763046 11.97679 114.292162 77.30368 -2.022522 -123.743578 -38.580451 -33.119949 -18.985608 77.14377 35.021966 54.662892 -143.348929 9.960677 103.087327 93.508624 -16.776418 -125.40955 71.380935 16.554885 67.081884
3.8129000000000004 6.643400000000001 3.6286 38.480075 -41.125947 -19.84194 1.484489 45.066691 -86.887903 132.27276 -61.179403 137.373827 89.612059 68.37299 11.590654 6.686833 62.516116 41.848817 -158.93999 -3.724822 -19.845024 19.417852 6.107995 34.638563 84.30965 39.432315 -13.279432 37.217444 15.027041 -3.014564 165.187882 41.406979 55.040268 154.167839 8.741504 142.663458 -34.699899 12.087562 -9.176617 -147.775612 -25.278538 98.467351 -119.989518 58.024217 61.315601 111.048001 81.457843 65.812305 112.039185 -2.175114 -15.749258 146.150176 -80.143897 -92.35562 91.503209 32.022307 -25.340217 31.229091 -79.774311 85.420622 30.602758 -30.288619 -15.243998 -62.792119 -45.95204 -53.217185 151.137972 74.945387 -74.910042 -163.891407 -58.547086 -87.290564 28.278888 13.832817 -105.098721 -37.615154 -37.978869 3.788384 -91.451674 -42.008769 -57.150086 53.284423 33.867924 -18.699717 -150.094881 -15.163234 84.44086 116.836671 66.924616 110.115053 11.561051 -45.243104 75.487065 160.025988 23.55102 149.161554 -13.950356 80.064021 -51.588832 124.394226 -36.989548 -168.888111 -100.817504 -35.029494 19.359163 85.471555 -57.181799 -13.791235 70.236242 58.985623 51.794867 -104.582873 -1.654163 96.93297 79.844257 -60.713837 170.811789 53.045759 -5.642726 57.250578 -18.691521 10.486287 -33.557294 31.299045 -68.293371 29.683858 -129.174106 63.338679 -33.943083 -63.112116 15.631284 -148.533106
3.9687 7.942699999999999 3.8249 42.238425 -40.145772 -25.054916 -17.452192 37.15244 -120.636077 69.862763 -23.986426 120.551615 50.331903 50.077659 -162.349095 21.586227 -54.342672 -108.801763 -174.01987 -1.390634 -26.160363 3.915088 0.677968 19.641469 97.875266 44.78898 4.09283 -75.57257 81.431479 95.144637 44.661924 8.914513 -158.94581 162.186896 35.140332 158.011633 -170.199266 29.528305 101.32638 -148.000064 -12.875176 118.853271 -79.588252 57.195623 17.61586 99.05089 82.014232 64.481767 -63.019536 -50.551533 156.728319 57.472238 78.896725 80.651623 -75.314918 10.029904 -159.6018 110.224037 48.957551 -66.062018 -7.756109 -28.179011 -66.738099 -157.359252 -87.757328 -156.990202 -150.597293 -20.648157 177.19148 -145.746304 -26.033287 -172.549996 -108.102737 81.208968 -140.285506 -146.126009 24.929343 -137.567539 107.165216 37.576288 -20.019376 -16.142133 -38.990046 -13.869268 -140.248546 17.632616 129.395507 77.425408 16.745858 123.044309 152.597677 21.500396 -179.229153 -83.740054 -63.626741 -119.833118 93.395261 -0.143891 169.059145 141.185006 9.070168 -162.629279 -143.847905 74.166987 18.237448 -27.11225 19.001181 84.353105 -17.768679 0.467992 24.481122 18.019156 -44.203239 -80.122702 -83.190827 30.776756 -7.694334 50.471886 -7.870568 54.266892 0.745488 1.73337 -23.275933 34.77462 -78.722345 143.07585 107.923847 9.009191 -37.251419 -108.369713 16.140752 -15.164956
4.1734 8.305800000000001 4.0836 47.103441 -40.6374 -29.76877 -31.937411 36.176285 0.0 -56.11013 -28.886591 -19.058478 71.616168 15.096469 102.426504 81.910028 14.632405 -48.775524 -177.955247 -0.49238 -27.075729 3.957067 0.449211 12.948087 -53.562024 -49.972085 163.889308 -128.084868 68.522598 131.49223 156.183062 -9.973456 31.07454 166.968347 14.749691 157.375007 -2.231308 -22.175794 -27.431916 -150.738057 -3.058832 65.960109 -53.934005 56.793114 -3.66433 172.718778 51.588405 -19.648326 64.997253 49.877708 21.882288 -64.356919 47.751484 -87.209618 81.545095 22.195823 -14.822418 -42.116358 12.225422 11.77551 25.935128 -7.723946 -57.421036 -133.810406 -14.360342 170.592455 62.129772 40.407967 5.62309 124.685 -0.492429 -155.479642 115.03872 13.722756 160.324582 -55.974902 -17.782305 -30.77824 87.864865 66.929413 3.150219 0.282012 -60.442501 4.033107 -65.99744 70.674802 112.529902 -166.450505 -33.111513 175.52839 158.08414 45.822156 -161.07364 -65.218347 -61.870506 -107.431902 -33.2359 -11.469767 -10.632482 -8.216624 40.395317 7.55015 21.238527 -67.394076 76.724345 117.855147 5.339868 -164.003676 31.529686 62.330205 71.609842 -95.828718 1.898248 76.08354 92.249848 -78.438166 48.679621 96.015582 8.897792 141.27792 9.546811 -2.443926 -12.065292 46.411788 -78.8015 46.023255 -134.755426 47.969447 -122.572027 -177.721907 83.416491 49.999558
